<svg class="main-svg" xmlns="http://www.w3.org/2000/svg" xmlns:xlink="http://www.w3.org/1999/xlink" width="700" height="500" style="" viewBox="0 0 700 500"><rect x="0" y="0" width="700" height="500" style="fill: rgb(255, 255, 255); fill-opacity: 1;"/><defs id="defs-e26d5f"><g class="clips"><clipPath id="clipe26d5fxyplot" class="plotclip"><rect width="532.4037620297462" height="337.09366797900265"/></clipPath><clipPath class="axesclip" id="clipe26d5fx"><rect x="113.65923009623796" y="0" width="532.4037620297462" height="500"/></clipPath><clipPath class="axesclip" id="clipe26d5fy"><rect x="0" y="83.33858267716532" width="700" height="337.09366797900265"/></clipPath><clipPath class="axesclip" id="clipe26d5fxy"><rect x="113.65923009623796" y="83.33858267716532" width="532.4037620297462" height="337.09366797900265"/></clipPath></g><g class="gradients"/></defs><g class="bglayer"/><g class="layer-below"><g class="imagelayer"/><g class="shapelayer"/></g><g class="cartesianlayer"><g class="subplot xy"><g class="layer-subplot"><g class="shapelayer"/><g class="imagelayer"/></g><g class="gridlayer"><g class="x"><path class="xgrid crisp" transform="translate(119.50923009623796,0)" d="M0,83.33858267716532v337.09366797900265" style="stroke: rgb(0, 0, 0); stroke-opacity: 0.1; stroke-width: 0.5px;"/><path class="xgrid crisp" transform="translate(268.31923009623796,0)" d="M0,83.33858267716532v337.09366797900265" style="stroke: rgb(0, 0, 0); stroke-opacity: 0.1; stroke-width: 0.5px;"/><path class="xgrid crisp" transform="translate(417.12923009623796,0)" d="M0,83.33858267716532v337.09366797900265" style="stroke: rgb(0, 0, 0); stroke-opacity: 0.1; stroke-width: 0.5px;"/><path class="xgrid crisp" transform="translate(565.9392300962379,0)" d="M0,83.33858267716532v337.09366797900265" style="stroke: rgb(0, 0, 0); stroke-opacity: 0.1; stroke-width: 0.5px;"/></g><g class="y"><path class="ygrid crisp" transform="translate(0,412.93858267716536)" d="M113.65923009623796,0h532.4037620297462" style="stroke: rgb(0, 0, 0); stroke-opacity: 0.1; stroke-width: 0.5px;"/><path class="ygrid crisp" transform="translate(0,334.27858267716533)" d="M113.65923009623796,0h532.4037620297462" style="stroke: rgb(0, 0, 0); stroke-opacity: 0.1; stroke-width: 0.5px;"/><path class="ygrid crisp" transform="translate(0,255.6285826771653)" d="M113.65923009623796,0h532.4037620297462" style="stroke: rgb(0, 0, 0); stroke-opacity: 0.1; stroke-width: 0.5px;"/><path class="ygrid crisp" transform="translate(0,176.96858267716533)" d="M113.65923009623796,0h532.4037620297462" style="stroke: rgb(0, 0, 0); stroke-opacity: 0.1; stroke-width: 0.5px;"/><path class="ygrid crisp" transform="translate(0,98.30858267716532)" d="M113.65923009623796,0h532.4037620297462" style="stroke: rgb(0, 0, 0); stroke-opacity: 0.1; stroke-width: 0.5px;"/></g></g><g class="zerolinelayer"/><path class="xlines-below"/><path class="ylines-below"/><g class="overlines-below"/><g class="xaxislayer-below"/><g class="yaxislayer-below"/><g class="overaxes-below"/><g class="plot" transform="translate(113.65923009623796,83.33858267716532)" clip-path="url('#clipe26d5fxyplot')"><g class="scatterlayer mlayer"><g class="trace scatter tracef58547" style="stroke-miterlimit: 2; opacity: 1;"><g class="fills"/><g class="errorbars"/><g class="lines"><path class="js-line" d="M15.07,273.11L18.46,292.26L19.21,294.39L20.51,295.67L21.1,295.07L22.71,290.26L23.21,287.9L25.56,272.07L26.02,267.52L36.62,161.96L37.13,158.3L40.93,136.75L41.51,134.29L44.58,124.59L45.23,123.18L47.99,119.39L48.72,118.91L51.02,118.61L51.83,118.9L54.39,120.93L55.29,121.99L59.2,128.17L60.25,130.19L67.45,146.24L68.81,149.55L88.86,196.56L91.33,201.67L99.78,217.64L103,223.14L114.29,240.07L118.72,245.81L128.92,257.36L134.84,263.13L148.86,274.6L157.28,280.25L166.94,285.81L178.16,291.26L191.39,296.57L207.27,301.71L226.79,306.63L251.5,311.3L284.04,315.65L329.32,319.64L397.84,323.16L517.34,326.13" style="vector-effect: non-scaling-stroke; fill: none; stroke: rgb(0, 154, 250); stroke-opacity: 1; stroke-width: 1px; opacity: 1;"/></g><g class="points"/><g class="text"/></g><g class="trace scatter trace80890c" style="stroke-miterlimit: 2; opacity: 1;"><g class="fills"/><g class="errorbars"/><g class="lines"><path class="js-line" d="M15.07,284.92L18.46,299.6L19.21,300.83L20.51,300.52L21.1,299.36L22.71,293.2L23.21,290.47L26.47,266L26.91,262.04L30.92,220.47L31.37,215.02L36.62,162.36L37.13,158.38L40.93,135.1L41.51,132.47L44.58,122.09L45.23,120.59L47.99,116.53L48.72,116.01L51.02,115.65L51.83,115.94L54.39,117.99L55.29,119.08L59.2,125.42L60.25,127.5L67.45,143.96L68.81,147.35L86.53,190.21L88.86,195.29L99.78,216.69L103,222.28L114.29,239.43L118.72,245.23L128.92,256.91L134.84,262.74L148.86,274.31L157.28,280L166.94,285.61L178.16,291.1L191.39,296.45L207.27,301.61L226.79,306.56L251.5,311.25L284.04,315.62L329.32,319.62L397.84,323.16L517.34,326.13" style="vector-effect: non-scaling-stroke; fill: none; stroke: rgb(227, 111, 71); stroke-opacity: 1; stroke-width: 1px; opacity: 1;"/></g><g class="points"/><g class="text"/></g><g class="trace scatter trace861362" style="stroke-miterlimit: 2; opacity: 1;"><g class="fills"/><g class="errorbars"/><g class="lines"><path class="js-line" d="M15.07,302.24L16.55,293.44L17.6,281.51L21.1,219.83L21.66,208.8L24.17,142.05L24.64,130.2L28.25,59.49L28.69,53.23L31.37,25.5L31.83,22.35L34.16,12.01L34.64,10.94L36.12,9.54L36.62,9.64L38.17,11.51L38.71,12.62L41.51,21.56L42.1,23.96L47.28,49.49L47.99,53.37L62.48,130.12L63.65,135.57L71.72,169.06L73.28,174.73L80.26,197.46L82.24,203.13L88.86,220.01L91.33,225.58L99.78,242.02L103,247.39L110.22,257.92L114.29,263.07L123.57,273.09L128.92,277.94L141.44,287.29L148.86,291.76L166.94,300.25L178.16,304.24L191.39,308.04L207.27,311.64L226.79,315.01L251.5,318.13L284.04,320.98L329.32,323.53L397.84,325.74L517.34,327.55" style="vector-effect: non-scaling-stroke; fill: none; stroke: rgb(62, 164, 78); stroke-opacity: 1; stroke-width: 1px; opacity: 1;"/></g><g class="points"/><g class="text"/></g></g></g><g class="overplot"/><path class="xlines-above crisp" d="M112.65923009623796,420.932250656168H646.0629921259841" style="fill: none; stroke-width: 1px; stroke: rgb(0, 0, 0); stroke-opacity: 1;"/><path class="ylines-above crisp" d="M113.15923009623796,83.33858267716532V420.432250656168" style="fill: none; stroke-width: 1px; stroke: rgb(0, 0, 0); stroke-opacity: 1;"/><g class="overlines-above"/><g class="xaxislayer-above"><path class="xtick ticks crisp" d="M0,420.432250656168v-5" transform="translate(119.50923009623796,0)" style="stroke: rgb(0, 0, 0); stroke-opacity: 1; stroke-width: 1px;"/><path class="xtick ticks crisp" d="M0,420.432250656168v-5" transform="translate(268.31923009623796,0)" style="stroke: rgb(0, 0, 0); stroke-opacity: 1; stroke-width: 1px;"/><path class="xtick ticks crisp" d="M0,420.432250656168v-5" transform="translate(417.12923009623796,0)" style="stroke: rgb(0, 0, 0); stroke-opacity: 1; stroke-width: 1px;"/><path class="xtick ticks crisp" d="M0,420.432250656168v-5" transform="translate(565.9392300962379,0)" style="stroke: rgb(0, 0, 0); stroke-opacity: 1; stroke-width: 1px;"/><g class="xtick"><text text-anchor="middle" x="0" y="434.63225065616797" transform="translate(119.50923009623796,0)" style="font-family: sans-serif; font-size: 11px; fill: rgb(0, 0, 0); fill-opacity: 1; white-space: pre;">0</text></g><g class="xtick"><text text-anchor="middle" x="0" y="434.63225065616797" transform="translate(268.31923009623796,0)" style="font-family: sans-serif; font-size: 11px; fill: rgb(0, 0, 0); fill-opacity: 1; white-space: pre;">20</text></g><g class="xtick"><text text-anchor="middle" x="0" y="434.63225065616797" transform="translate(417.12923009623796,0)" style="font-family: sans-serif; font-size: 11px; fill: rgb(0, 0, 0); fill-opacity: 1; white-space: pre;">40</text></g><g class="xtick"><text text-anchor="middle" x="0" y="434.63225065616797" transform="translate(565.9392300962379,0)" style="font-family: sans-serif; font-size: 11px; fill: rgb(0, 0, 0); fill-opacity: 1; white-space: pre;">60</text></g></g><g class="yaxislayer-above"><path class="ytick ticks crisp" d="M113.65923009623796,0h5" transform="translate(0,412.93858267716536)" style="stroke: rgb(0, 0, 0); stroke-opacity: 1; stroke-width: 1px;"/><path class="ytick ticks crisp" d="M113.65923009623796,0h5" transform="translate(0,334.27858267716533)" style="stroke: rgb(0, 0, 0); stroke-opacity: 1; stroke-width: 1px;"/><path class="ytick ticks crisp" d="M113.65923009623796,0h5" transform="translate(0,255.6285826771653)" style="stroke: rgb(0, 0, 0); stroke-opacity: 1; stroke-width: 1px;"/><path class="ytick ticks crisp" d="M113.65923009623796,0h5" transform="translate(0,176.96858267716533)" style="stroke: rgb(0, 0, 0); stroke-opacity: 1; stroke-width: 1px;"/><path class="ytick ticks crisp" d="M113.65923009623796,0h5" transform="translate(0,98.30858267716532)" style="stroke: rgb(0, 0, 0); stroke-opacity: 1; stroke-width: 1px;"/><g class="ytick"><text text-anchor="end" x="110.45923009623796" y="3.8499999999999996" transform="translate(0,412.93858267716536)" style="font-family: sans-serif; font-size: 11px; fill: rgb(0, 0, 0); fill-opacity: 1; white-space: pre;">0.000</text></g><g class="ytick"><text text-anchor="end" x="110.45923009623796" y="3.8499999999999996" transform="translate(0,334.27858267716533)" style="font-family: sans-serif; font-size: 11px; fill: rgb(0, 0, 0); fill-opacity: 1; white-space: pre;">0.025</text></g><g class="ytick"><text text-anchor="end" x="110.45923009623796" y="3.8499999999999996" transform="translate(0,255.6285826771653)" style="font-family: sans-serif; font-size: 11px; fill: rgb(0, 0, 0); fill-opacity: 1; white-space: pre;">0.050</text></g><g class="ytick"><text text-anchor="end" x="110.45923009623796" y="3.8499999999999996" transform="translate(0,176.96858267716533)" style="font-family: sans-serif; font-size: 11px; fill: rgb(0, 0, 0); fill-opacity: 1; white-space: pre;">0.075</text></g><g class="ytick"><text text-anchor="end" x="110.45923009623796" y="3.8499999999999996" transform="translate(0,98.30858267716532)" style="font-family: sans-serif; font-size: 11px; fill: rgb(0, 0, 0); fill-opacity: 1; white-space: pre;">0.100</text></g></g><g class="overaxes-above"/></g></g><g class="polarlayer"/><g class="ternarylayer"/><g class="geolayer"/><g class="funnelarealayer"/><g class="pielayer"/><g class="treemaplayer"/><g class="sunburstlayer"/><g class="glimages"/><defs id="topdefs-e26d5f"><g class="clips"/><clipPath id="legende26d5f"><rect width="70" height="67" x="1" y="1"/></clipPath></defs><g class="layer-above"><g class="imagelayer"/><g class="shapelayer"/></g><g class="infolayer"><g class="legend" pointer-events="all" transform="translate(578,212.7)"><rect class="bg" shape-rendering="crispEdges" width="71" height="68" x="0.5" y="0.5" style="stroke: rgb(0, 0, 0); stroke-opacity: 1; fill: rgb(255, 255, 255); fill-opacity: 1; stroke-width: 1px;"/><g class="scrollbox" transform="" clip-path="url('#legende26d5f')"><g class="groups"><g class="traces" transform="translate(1,15.5)" style="opacity: 1;"><text class="legendtext" text-anchor="start" x="40" y="4.29" style="font-family: sans-serif; font-size: 11px; fill: rgb(0, 0, 0); fill-opacity: 1; white-space: pre;">1970</text><g class="layers" style="opacity: 1;"><g class="legendfill"/><g class="legendlines"><path class="js-line" d="M5,0h30" style="fill: none; stroke: rgb(0, 154, 250); stroke-opacity: 1; stroke-width: 1px;"/></g><g class="legendsymbols"><g class="legendpoints"/></g></g><rect class="legendtoggle" x="0" y="-9.5" width="64.484375" height="19" style="fill: rgb(0, 0, 0); fill-opacity: 0;"/></g><g class="traces" transform="translate(1,34.5)" style="opacity: 1;"><text class="legendtext" text-anchor="start" x="40" y="4.29" style="font-family: sans-serif; font-size: 11px; fill: rgb(0, 0, 0); fill-opacity: 1; white-space: pre;">1990</text><g class="layers" style="opacity: 1;"><g class="legendfill"/><g class="legendlines"><path class="js-line" d="M5,0h30" style="fill: none; stroke: rgb(227, 111, 71); stroke-opacity: 1; stroke-width: 1px;"/></g><g class="legendsymbols"><g class="legendpoints"/></g></g><rect class="legendtoggle" x="0" y="-9.5" width="64.484375" height="19" style="fill: rgb(0, 0, 0); fill-opacity: 0;"/></g><g class="traces" transform="translate(1,53.5)" style="opacity: 1;"><text class="legendtext" text-anchor="start" x="40" y="4.29" style="font-family: sans-serif; font-size: 11px; fill: rgb(0, 0, 0); fill-opacity: 1; white-space: pre;">2010</text><g class="layers" style="opacity: 1;"><g class="legendfill"/><g class="legendlines"><path class="js-line" d="M5,0h30" style="fill: none; stroke: rgb(62, 164, 78); stroke-opacity: 1; stroke-width: 1px;"/></g><g class="legendsymbols"><g class="legendpoints"/></g></g><rect class="legendtoggle" x="0" y="-9.5" width="64.484375" height="19" style="fill: rgb(0, 0, 0); fill-opacity: 0;"/></g></g></g><rect class="scrollbar" rx="20" ry="3" width="0" height="0" x="0" y="0" style="fill: rgb(128, 139, 164); fill-opacity: 1;"/></g><g class="g-gtitle"/><g class="g-xtitle"><text class="xtitle" x="379.8611111111111" y="462.640625" text-anchor="middle" style="font-family: sans-serif; font-size: 15px; fill: rgb(0, 0, 0); opacity: 1; font-weight: normal; white-space: pre;">Idiosyncratic Ability</text></g><g class="g-ytitle"><text class="ytitle" transform="rotate(-90,57.421875,251.88541666666663)" x="57.421875" y="251.88541666666663" text-anchor="middle" style="font-family: sans-serif; font-size: 15px; fill: rgb(0, 0, 0); opacity: 1; font-weight: normal; white-space: pre;">Density</text></g><g class="annotation" data-index="0" style="opacity: 1;"><g class="annotation-text-g" transform="rotate(0,379.8611111111111,74.50000000000001)"><g class="cursor-pointer" transform="translate(220,60)"><rect class="bg" x="0.5" y="0.5" width="319" height="28" style="stroke-width: 1px; stroke: rgb(0, 0, 0); stroke-opacity: 0; fill: rgb(0, 0, 0); fill-opacity: 0;"/><text class="annotation-text" text-anchor="middle" x="160.015625" y="22" style="font-family: sans-serif; font-size: 22px; fill: rgb(0, 0, 0); fill-opacity: 1; white-space: pre;">Distribution of Teachers' Abilities</text></g></g></g></g></svg>